<?xml version="1.0" standalone="no"?>
<!DOCTYPE svg PUBLIC "-//W3C//DTD SVG 20010904//EN"
 "http://www.w3.org/TR/2001/REC-SVG-20010904/DTD/svg10.dtd">
<svg version="1.0" xmlns="http://www.w3.org/2000/svg"
 width="512.000000pt" height="201.000000pt" viewBox="0 0 512.000000 201.000000"
 preserveAspectRatio="xMidYMid meet">

<g transform="translate(0.000000,201.000000) scale(0.100000,-0.100000)"
fill="#000000" stroke="none">
<path d="M1593 1448 c-32 -8 -32 -9 -26 -53 6 -44 5 -45 -28 -59 -34 -15 -34
-14 -65 21 -30 36 -30 36 -57 18 -32 -21 -31 -15 -11 -65 16 -40 16 -42 -6
-65 l-22 -24 -44 22 c-43 21 -44 21 -59 1 -21 -27 -19 -37 14 -68 29 -28 29
-29 14 -62 -16 -32 -18 -33 -61 -27 -32 4 -46 2 -53 -8 -18 -29 -9 -49 32 -69
28 -15 39 -26 35 -36 -3 -9 -6 -24 -6 -34 0 -14 -11 -21 -42 -27 -41 -8 -43
-10 -43 -43 0 -34 1 -35 45 -40 37 -4 45 -9 51 -30 12 -41 10 -44 -30 -67 -38
-22 -39 -24 -28 -53 13 -33 17 -34 67 -20 31 9 37 7 52 -12 24 -31 22 -41 -9
-78 l-26 -32 25 -25 26 -26 36 28 35 27 30 -21 c30 -21 30 -22 15 -63 -18 -51
-19 -45 15 -63 29 -15 30 -14 57 24 27 36 30 37 61 28 31 -10 33 -13 33 -59
l0 -49 37 3 c33 3 37 7 47 43 11 36 15 40 48 43 34 3 37 1 48 -35 16 -49 19
-52 55 -42 29 8 30 11 27 54 -4 43 -2 46 28 59 32 13 34 12 62 -20 30 -34 30
-34 59 -17 34 20 34 18 9 63 l-18 35 25 27 26 27 38 -21 c37 -21 39 -21 59 -3
27 24 25 36 -10 70 -28 27 -29 29 -13 59 8 17 16 32 17 33 0 1 20 -2 44 -7 40
-7 44 -6 53 17 14 37 12 41 -32 64 -34 17 -40 24 -35 42 3 12 6 27 6 34 0 6
19 16 43 20 40 8 42 10 42 43 0 34 -1 35 -46 38 -43 3 -47 5 -53 34 -9 44 -9
43 29 64 37 20 42 33 24 66 -11 20 -21 20 -81 2 -10 -3 -24 6 -37 24 l-21 30
31 38 30 38 -25 24 -24 25 -35 -27 c-28 -22 -40 -25 -55 -17 -38 20 -43 35
-28 80 l15 41 -29 15 c-29 15 -30 15 -57 -23 -26 -35 -30 -37 -60 -29 -29 9
-32 13 -35 56 -3 45 -4 46 -39 49 -35 3 -36 2 -45 -40 -8 -40 -11 -43 -44 -46
-34 -3 -37 0 -55 41 -19 43 -21 44 -52 35z m187 -443 c42 -22 60 -53 60 -105
0 -52 -18 -83 -62 -106 -66 -34 -147 2 -169 76 -29 96 80 182 171 135z"/>
<path d="M2927 1453 c-4 -3 -7 -26 -7 -50 0 -40 -2 -44 -37 -58 -36 -15 -37
-15 -69 16 -32 31 -34 32 -59 15 -30 -20 -30 -17 -6 -65 l20 -38 -29 -28 c-29
-28 -30 -28 -70 -12 l-40 15 -16 -31 c-18 -33 -20 -29 39 -71 15 -12 16 -17 5
-52 -12 -36 -16 -39 -53 -42 -43 -4 -55 -14 -55 -49 0 -17 7 -24 28 -29 57
-12 70 -21 74 -58 3 -31 0 -37 -34 -56 -21 -12 -38 -23 -38 -24 0 -2 5 -17 11
-34 10 -28 12 -30 42 -21 48 14 60 11 85 -21 l23 -29 -25 -38 -26 -38 24 -24
24 -24 32 26 c37 31 41 32 81 12 28 -15 29 -18 23 -64 -6 -49 -6 -49 26 -56
17 -4 32 -5 34 -3 1 1 9 20 19 41 15 34 20 37 56 37 37 0 40 -3 51 -37 16 -50
22 -55 54 -47 23 5 26 11 26 50 0 41 2 45 37 59 36 15 37 15 69 -16 32 -31 34
-32 59 -15 28 19 30 30 10 66 -19 34 -18 41 10 72 23 27 25 27 59 13 48 -20
53 -19 70 13 14 26 13 28 -24 54 -37 27 -37 28 -27 67 10 39 13 40 56 43 45 3
46 4 46 38 0 32 -2 35 -41 43 -36 7 -42 12 -48 39 -10 48 -8 52 29 72 37 20
43 41 23 69 -11 14 -19 15 -53 6 -37 -11 -40 -10 -62 17 -28 35 -28 42 -3 74
25 32 25 43 -1 66 -14 12 -24 15 -33 9 -65 -48 -62 -47 -96 -30 -31 16 -32 19
-28 65 4 43 2 49 -16 54 -38 10 -45 6 -67 -35 -19 -38 -23 -41 -51 -35 -17 3
-34 6 -39 6 -4 0 -14 18 -20 40 -10 34 -16 40 -39 40 -15 0 -30 -3 -33 -7z
m176 -404 c38 -41 37 -90 -2 -130 -78 -78 -204 9 -157 108 18 39 67 65 106 56
14 -3 37 -18 53 -34z"/>
<path d="M2403 783 c-20 -4 -23 -11 -23 -51 0 -45 -2 -48 -42 -70 l-41 -22
-35 27 c-36 27 -54 25 -75 -9 -8 -11 -3 -25 17 -51 l27 -35 -20 -39 c-19 -34
-26 -38 -69 -43 -46 -5 -47 -6 -47 -39 0 -31 4 -36 43 -48 35 -12 42 -19 42
-41 0 -15 3 -36 5 -47 4 -15 -4 -26 -30 -44 -40 -27 -41 -32 -19 -66 15 -24
16 -24 56 -8 l40 16 35 -36 c33 -33 35 -37 24 -67 -16 -47 -14 -55 16 -69 25
-11 29 -10 46 10 10 12 21 28 26 36 6 11 20 13 57 8 50 -7 51 -8 62 -52 10
-34 16 -44 28 -39 9 3 24 6 35 6 16 0 19 7 19 48 0 45 2 48 42 70 l41 22 35
-27 c36 -27 54 -25 76 9 7 12 3 25 -17 52 l-28 36 21 39 c18 37 23 40 67 43
47 3 48 4 51 38 3 34 1 36 -43 48 -39 10 -45 15 -45 39 0 16 -3 37 -5 48 -4
15 4 26 30 44 39 26 42 37 20 68 -15 21 -17 21 -57 7 l-42 -15 -34 35 c-32 32
-34 36 -23 66 16 47 14 55 -16 69 -25 11 -29 10 -46 -10 -10 -12 -22 -29 -26
-37 -7 -12 -18 -13 -56 -6 -45 8 -49 12 -63 52 -7 23 -19 41 -25 41 -7 -1 -22
-4 -34 -6z m128 -332 c17 -13 23 -29 23 -56 0 -66 -73 -99 -125 -56 -52 42
-17 131 51 131 15 0 38 -8 51 -19z"/>
</g>
</svg>
